<svg width="162" height="32" viewBox="0 0 162 32" fill="none" xmlns="http://www.w3.org/2000/svg">
<g clip-path="url(#clip0_214_10363)">
<g clip-path="url(#clip1_214_10363)">
<path fill-rule="evenodd" clip-rule="evenodd" d="M16 32C24.8366 32 32 24.8366 32 16C32 7.16344 24.8366 0 16 0C7.16344 0 0 7.16344 0 16C0 24.8366 7.16344 32 16 32ZM16 29C23.1797 29 29 23.1797 29 16C29 8.8203 23.1797 3 16 3C8.8203 3 3 8.8203 3 16C3 23.1797 8.8203 29 16 29Z" fill="#0F5757"/>
<path d="M16 10.2547C17.1338 9.46381 18.5128 9 20 9C23.866 9 27 12.134 27 16C27 19.866 23.866 23 20 23C18.5128 23 17.1338 22.5362 16 21.7453C17.8135 20.4804 19 18.3787 19 16C19 13.6213 17.8135 11.5196 16 10.2547Z" fill="#006666"/>
<path d="M16 21.7453C14.1865 20.4804 13 18.3787 13 16C13 13.6213 14.1865 11.5196 16 10.2547C14.8662 9.46381 13.4872 9 12 9C8.13401 9 5 12.134 5 16C5 19.866 8.13401 23 12 23C13.4872 23 14.8662 22.5362 16 21.7453Z" fill="#00F872"/>
</g>
<path d="M47.908 23.36C46.644 23.36 45.584 23.06 44.728 22.46C43.872 21.86 43.228 21.044 42.796 20.012C42.364 18.972 42.148 17.808 42.148 16.52C42.148 15.216 42.364 14.048 42.796 13.016C43.228 11.984 43.86 11.172 44.692 10.58C45.532 9.98 46.568 9.68 47.8 9.68C49.024 9.68 50.084 9.98 50.98 10.58C51.884 11.172 52.584 11.984 53.08 13.016C53.576 14.04 53.824 15.208 53.824 16.52C53.824 17.816 53.58 18.98 53.092 20.012C52.604 21.044 51.916 21.86 51.028 22.46C50.14 23.06 49.1 23.36 47.908 23.36ZM41.656 28.76V10.04H44.212V19.136H44.572V28.76H41.656ZM47.464 20.768C48.216 20.768 48.836 20.58 49.324 20.204C49.812 19.828 50.172 19.32 50.404 18.68C50.644 18.032 50.764 17.312 50.764 16.52C50.764 15.736 50.644 15.024 50.404 14.384C50.164 13.736 49.792 13.224 49.288 12.848C48.784 12.464 48.144 12.272 47.368 12.272C46.632 12.272 46.032 12.452 45.568 12.812C45.104 13.164 44.76 13.66 44.536 14.3C44.32 14.932 44.212 15.672 44.212 16.52C44.212 17.36 44.32 18.1 44.536 18.74C44.76 19.38 45.108 19.88 45.58 20.24C46.06 20.592 46.688 20.768 47.464 20.768ZM62.3611 23.36C61.0491 23.36 59.8971 23.076 58.9051 22.508C57.9131 21.94 57.1371 21.152 56.5771 20.144C56.0251 19.136 55.7491 17.976 55.7491 16.664C55.7491 15.248 56.0211 14.02 56.5651 12.98C57.1091 11.932 57.8651 11.12 58.8331 10.544C59.8011 9.968 60.9211 9.68 62.1931 9.68C63.5371 9.68 64.6771 9.996 65.6131 10.628C66.5571 11.252 67.2571 12.136 67.7131 13.28C68.1691 14.424 68.3411 15.772 68.2291 17.324H65.3611V16.268C65.3531 14.86 65.1051 13.832 64.6171 13.184C64.1291 12.536 63.3611 12.212 62.3131 12.212C61.1291 12.212 60.2491 12.58 59.6731 13.316C59.0971 14.044 58.8091 15.112 58.8091 16.52C58.8091 17.832 59.0971 18.848 59.6731 19.568C60.2491 20.288 61.0891 20.648 62.1931 20.648C62.9051 20.648 63.5171 20.492 64.0291 20.18C64.5491 19.86 64.9491 19.4 65.2291 18.8L68.0851 19.664C67.5891 20.832 66.8211 21.74 65.7811 22.388C64.7491 23.036 63.6091 23.36 62.3611 23.36ZM57.8971 17.324V15.14H66.8131V17.324H57.8971ZM79.519 23V16.76C79.519 16.352 79.491 15.9 79.435 15.404C79.379 14.908 79.247 14.432 79.039 13.976C78.839 13.512 78.535 13.132 78.127 12.836C77.727 12.54 77.183 12.392 76.495 12.392C76.127 12.392 75.763 12.452 75.403 12.572C75.043 12.692 74.715 12.9 74.419 13.196C74.131 13.484 73.899 13.884 73.723 14.396C73.547 14.9 73.459 15.548 73.459 16.34L71.743 15.608C71.743 14.504 71.955 13.504 72.379 12.608C72.811 11.712 73.443 11 74.275 10.472C75.107 9.936 76.131 9.668 77.347 9.668C78.307 9.668 79.099 9.828 79.723 10.148C80.347 10.468 80.843 10.876 81.211 11.372C81.579 11.868 81.851 12.396 82.027 12.956C82.203 13.516 82.315 14.048 82.363 14.552C82.419 15.048 82.447 15.452 82.447 15.764V23H79.519ZM70.531 23V10.04H73.111V14.06H73.459V23H70.531ZM94.5424 23V16.76C94.5424 16.352 94.5144 15.9 94.4584 15.404C94.4024 14.908 94.2704 14.432 94.0624 13.976C93.8624 13.512 93.5584 13.132 93.1504 12.836C92.7504 12.54 92.2064 12.392 91.5184 12.392C91.1504 12.392 90.7864 12.452 90.4264 12.572C90.0664 12.692 89.7384 12.9 89.4424 13.196C89.1544 13.484 88.9224 13.884 88.7464 14.396C88.5704 14.9 88.4824 15.548 88.4824 16.34L86.7664 15.608C86.7664 14.504 86.9784 13.504 87.4024 12.608C87.8344 11.712 88.4664 11 89.2984 10.472C90.1304 9.936 91.1544 9.668 92.3704 9.668C93.3304 9.668 94.1224 9.828 94.7464 10.148C95.3704 10.468 95.8664 10.876 96.2344 11.372C96.6024 11.868 96.8744 12.396 97.0504 12.956C97.2264 13.516 97.3384 14.048 97.3864 14.552C97.4424 15.048 97.4704 15.452 97.4704 15.764V23H94.5424ZM85.5544 23V10.04H88.1344V14.06H88.4824V23H85.5544ZM101.837 28.76L104.333 21.908L104.381 23.924L98.7291 10.04H101.741L105.749 20.312H104.981L108.881 10.04H111.773L104.549 28.76H101.837ZM113.803 23V5.36H116.695V23H113.803ZM123.913 23.36C122.977 23.36 122.185 23.184 121.537 22.832C120.889 22.472 120.397 21.996 120.061 21.404C119.733 20.812 119.569 20.16 119.569 19.448C119.569 18.824 119.673 18.264 119.881 17.768C120.089 17.264 120.409 16.832 120.841 16.472C121.273 16.104 121.833 15.804 122.521 15.572C123.041 15.404 123.649 15.252 124.345 15.116C125.049 14.98 125.809 14.856 126.625 14.744C127.449 14.624 128.309 14.496 129.205 14.36L128.173 14.948C128.181 14.052 127.981 13.392 127.573 12.968C127.165 12.544 126.477 12.332 125.509 12.332C124.925 12.332 124.361 12.468 123.817 12.74C123.273 13.012 122.893 13.48 122.677 14.144L120.037 13.316C120.357 12.22 120.965 11.34 121.861 10.676C122.765 10.012 123.981 9.68 125.509 9.68C126.661 9.68 127.673 9.868 128.545 10.244C129.425 10.62 130.077 11.236 130.501 12.092C130.733 12.548 130.873 13.016 130.921 13.496C130.969 13.968 130.993 14.484 130.993 15.044V23H128.461V20.192L128.881 20.648C128.297 21.584 127.613 22.272 126.829 22.712C126.053 23.144 125.081 23.36 123.913 23.36ZM124.489 21.056C125.145 21.056 125.705 20.94 126.169 20.708C126.633 20.476 127.001 20.192 127.273 19.856C127.553 19.52 127.741 19.204 127.837 18.908C127.989 18.54 128.073 18.12 128.089 17.648C128.113 17.168 128.125 16.78 128.125 16.484L129.013 16.748C128.141 16.884 127.393 17.004 126.769 17.108C126.145 17.212 125.609 17.312 125.161 17.408C124.713 17.496 124.317 17.596 123.973 17.708C123.637 17.828 123.353 17.968 123.121 18.128C122.889 18.288 122.709 18.472 122.581 18.68C122.461 18.888 122.401 19.132 122.401 19.412C122.401 19.732 122.481 20.016 122.641 20.264C122.801 20.504 123.033 20.696 123.337 20.84C123.649 20.984 124.033 21.056 124.489 21.056ZM143.082 23V16.76C143.082 16.352 143.054 15.9 142.998 15.404C142.942 14.908 142.81 14.432 142.602 13.976C142.402 13.512 142.098 13.132 141.69 12.836C141.29 12.54 140.746 12.392 140.058 12.392C139.69 12.392 139.326 12.452 138.966 12.572C138.606 12.692 138.278 12.9 137.982 13.196C137.694 13.484 137.462 13.884 137.286 14.396C137.11 14.9 137.022 15.548 137.022 16.34L135.306 15.608C135.306 14.504 135.518 13.504 135.942 12.608C136.374 11.712 137.006 11 137.838 10.472C138.67 9.936 139.694 9.668 140.91 9.668C141.87 9.668 142.662 9.828 143.286 10.148C143.91 10.468 144.406 10.876 144.773 11.372C145.141 11.868 145.414 12.396 145.59 12.956C145.766 13.516 145.878 14.048 145.926 14.552C145.982 15.048 146.01 15.452 146.01 15.764V23H143.082ZM134.094 23V10.04H136.674V14.06H137.022V23H134.094ZM154.822 23.36C153.51 23.36 152.358 23.076 151.366 22.508C150.374 21.94 149.598 21.152 149.038 20.144C148.486 19.136 148.21 17.976 148.21 16.664C148.21 15.248 148.482 14.02 149.026 12.98C149.57 11.932 150.326 11.12 151.294 10.544C152.262 9.968 153.382 9.68 154.654 9.68C155.998 9.68 157.138 9.996 158.074 10.628C159.018 11.252 159.718 12.136 160.174 13.28C160.63 14.424 160.802 15.772 160.69 17.324H157.822V16.268C157.814 14.86 157.566 13.832 157.078 13.184C156.59 12.536 155.822 12.212 154.774 12.212C153.59 12.212 152.71 12.58 152.134 13.316C151.558 14.044 151.27 15.112 151.27 16.52C151.27 17.832 151.558 18.848 152.134 19.568C152.71 20.288 153.55 20.648 154.654 20.648C155.366 20.648 155.978 20.492 156.49 20.18C157.01 19.86 157.41 19.4 157.69 18.8L160.546 19.664C160.05 20.832 159.282 21.74 158.242 22.388C157.21 23.036 156.07 23.36 154.822 23.36ZM150.358 17.324V15.14H159.274V17.324H150.358Z" fill="#0F5757"/>
</g>
<defs>
<clipPath id="clip0_214_10363">
<rect width="162" height="32" fill="white"/>
</clipPath>
<clipPath id="clip1_214_10363">
<rect width="32" height="32" fill="white"/>
</clipPath>
</defs>
</svg>
